<?xml version="1.0" encoding="UTF-8" standalone="no"?>
<svg width="392px" height="94px" viewBox="0 0 392 94" version="1.1" xmlns="http://www.w3.org/2000/svg" xmlns:xlink="http://www.w3.org/1999/xlink" xmlns:sketch="http://www.bohemiancoding.com/sketch/ns">
    <title>Rackem Logo</title>
    <description>Created with Sketch (http://www.bohemiancoding.com/sketch)</description>
    <defs></defs>
    <g id="Page-1" stroke="none" stroke-width="1" fill="none" fill-rule="evenodd" sketch:type="MSPage">
        <path d="M4.99023438,7.99023438 L29.453125,6.74414062 L34.0507812,17.9277344 L72.6777344,18.1738281 L75.4023438,61.1425781 L101.984375,59.5253906 L102.484375,46.6171875 L124.646484,25.3671875 L134.077148,25.3671875 L139.652344,36.5507813 L146.314453,33.7539062 L151.462891,28.71875 L172.574219,29.0917969 L171.947266,51.1933594 L183.130859,50.4492188 L183.130859,24.9941406 L193.833984,25.3671875 L193.707031,40.765625 L198.435547,40.765625 L204.21875,31.2841797 L211.055664,31.2841797 L215.232422,50.8007812 L218.367188,56.0283203 L217.313477,61.1425781 L205.331055,61.1425781 L195.716797,54.015625 L191.303711,59.5253906 L173.583984,63.3359375 L170.105469,68.4433594 L148.994141,70.9335938 L141.058594,63.3359375 L136.212891,68.0703125 L136.212891,74.5292969 L124.646484,74.5292969 L118.931641,68.0703125 L108.376953,68.0703125 L107.630859,75.1679688 L86.1464844,75.9121094 L81.921875,84.8515625 L53.3613281,85.0957031 L41.953125,70.9335938 L28.4179688,81.7441406 L8.1796875,82.2441406 L4.99023438,7.99023438 Z" id="Path-3" fill="#F8E9B1" sketch:type="MSShapeGroup"></path>
        <path d="M217.792969,11 L218.783203,24.9941406 L229.103516,24.9941406 L229.103516,33.6992187 L234.445312,38.3066406 L234.818359,51.203125 L227.966797,52.0761719 L227.710938,60.7324219 L271.683594,62.2597656 L276.775391,56.8173828 L286.492188,59.6796875 L289.491211,63.5263672 L298.792969,62.2597656 L297.249023,40.2441406 L292.338867,38.1484375 L292.338867,29.0800781 L283.267578,29.0800781 L273.509766,29.0800781 L273.509766,38.1484375 L267.731445,40.2441406 L267.731445,46.8320312 L258.292969,48.5898438 L254.675781,40.2441406 L251.088867,25.2089844 L234.298828,25.2089844 L228.467773,23.4692383 L227.710938,11 L217.792969,11 Z" id="Path-4" fill="#F8E9B1" sketch:type="MSShapeGroup"></path>
        <g id="!" sketch:type="MSLayerGroup" transform="translate(293.000000, 10.000000)">
            <path d="M45.5117188,3.57128906 L52.7451172,10.5571289 L48.4863281,21.9511719 L40.5083008,38.0273438 L33.5224609,43.2124023 L24.9536133,51.9379883 L22.71875,68.3916016 L18.2788086,72.4619141 L9.4921875,72.4936523 L4.62109375,67.3701172 L4.53027344,58.237793 L10.8007812,52.6801758 L17.9091797,48.4262695 L17.9702148,30.8920898 L24.5200195,24.2763672 L28.9599609,11.2382812 L38.6435547,4.37988281 L45.5117188,3.57128906 Z" id="Path-1" fill="#F8E9B1" sketch:type="MSShapeGroup"></path>
            <path d="M0,56 L0,63 L7,63 L7,56 L0,56 Z M0,63 L0,70 L7,70 L7,63 L0,63 Z M7,70 L7,77 L14,77 L14,70 L7,70 Z M14,70 L14,77 L21,77 L21,70 L14,70 Z M21,63 L21,70 L28,70 L28,63 L21,63 Z M21,56 L21,63 L28,63 L28,56 L21,56 Z M7,49 L7,56 L14,56 L14,49 L7,49 Z M14,49 L14,56 L21,56 L21,49 L14,49 Z M21,49 L21,56 L28,56 L28,49 L21,49 Z M14,42 L14,49 L21,49 L21,42 L14,42 Z M14,35 L14,42 L21,42 L21,35 L14,35 Z M14,28 L14,35 L21,35 L21,28 L14,28 Z M21,21 L21,28 L28,28 L28,21 L21,21 Z M21,14 L21,21 L28,21 L28,14 L21,14 Z M28,7 L28,14 L35,14 L35,7 L28,7 Z M35,0 L35,7 L42,7 L42,0 L35,0 Z M42,0 L42,7 L49,7 L49,0 L42,0 Z M49,7 L49,14 L56,14 L56,7 L49,7 Z M49,14 L49,21 L56,21 L56,14 L49,14 Z M42,21 L42,28 L49,28 L49,21 L42,21 Z M42,28 L42,35 L49,35 L49,28 L42,28 Z M35,35 L35,42 L42,42 L42,35 L35,35 Z M28,42 L28,49 L35,49 L35,42 L28,42 Z" id="Rectangle-1" fill="#2D1B19" sketch:type="MSShapeGroup"></path>
        </g>
        <g id="!" sketch:type="MSLayerGroup" transform="translate(328.000000, 17.000000)">
            <path d="M45.5117188,3.57128906 L52.7451172,10.5571289 L48.4863281,21.9511719 L40.5083008,38.0273438 L33.5224609,43.2124023 L24.9536133,51.9379883 L22.71875,68.3916016 L18.2788086,72.4619141 L9.4921875,72.4936523 L4.62109375,67.3701172 L4.53027344,58.237793 L10.8007812,52.6801758 L17.9091797,48.4262695 L17.9702148,30.8920898 L24.5200195,24.2763672 L28.9599609,11.2382812 L38.6435547,4.37988281 L45.5117188,3.57128906 Z" id="Path-1" fill="#F8E9B1" sketch:type="MSShapeGroup"></path>
            <path d="M0,56 L0,63 L7,63 L7,56 L0,56 Z M0,63 L0,70 L7,70 L7,63 L0,63 Z M7,70 L7,77 L14,77 L14,70 L7,70 Z M14,70 L14,77 L21,77 L21,70 L14,70 Z M21,63 L21,70 L28,70 L28,63 L21,63 Z M21,56 L21,63 L28,63 L28,56 L21,56 Z M7,49 L7,56 L14,56 L14,49 L7,49 Z M14,49 L14,56 L21,56 L21,49 L14,49 Z M21,49 L21,56 L28,56 L28,49 L21,49 Z M14,42 L14,49 L21,49 L21,42 L14,42 Z M14,35 L14,42 L21,42 L21,35 L14,35 Z M14,28 L14,35 L21,35 L21,28 L14,28 Z M21,21 L21,28 L28,28 L28,21 L21,21 Z M21,14 L21,21 L28,21 L28,14 L21,14 Z M28,7 L28,14 L35,14 L35,7 L28,7 Z M35,0 L35,7 L42,7 L42,0 L35,0 Z M42,0 L42,7 L49,7 L49,0 L42,0 Z M49,7 L49,14 L56,14 L56,7 L49,7 Z M49,14 L49,21 L56,21 L56,14 L49,14 Z M42,21 L42,28 L49,28 L49,21 L42,21 Z M42,28 L42,35 L49,35 L49,28 L42,28 Z M35,35 L35,42 L42,42 L42,35 L35,35 Z M28,42 L28,49 L35,49 L35,42 L28,42 Z" id="Rectangle-1" fill="#2D1B19" sketch:type="MSShapeGroup"></path>
        </g>
        <path d="M270,26 L270,31 L275,31 L275,26 L270,26 Z M275,26 L275,31 L280,31 L280,26 L275,26 Z M280,26 L280,31 L285,31 L285,26 L280,26 Z M280,31 L280,36 L285,36 L285,31 L280,31 Z M280,36 L280,41 L285,41 L285,36 L280,36 Z M285,26 L285,31 L290,31 L290,26 L285,26 Z M290,26 L290,31 L295,31 L295,26 L290,26 Z M290,31 L290,36 L295,36 L295,31 L290,31 Z M290,36 L290,41 L295,41 L295,36 L290,36 Z M295,36 L295,41 L300,41 L300,36 L295,36 Z M295,41 L295,46 L300,46 L300,41 L295,41 Z M270,31 L270,36 L275,36 L275,31 L270,31 Z M270,36 L270,41 L275,41 L275,36 L270,36 Z M265,36 L265,41 L270,41 L270,36 L265,36 Z M265,41 L265,46 L270,46 L270,41 L265,41 Z M265,46 L265,51 L270,51 L270,46 L265,46 Z M260,46 L260,51 L265,51 L265,46 L260,46 Z M260,51 L260,56 L265,56 L265,51 L260,51 Z M260,56 L260,61 L265,61 L265,56 L260,56 Z M260,61 L260,66 L265,66 L265,61 L260,61 Z M265,61 L265,66 L270,66 L270,61 L265,61 Z M270,61 L270,66 L275,66 L275,61 L270,61 Z M270,56 L270,61 L275,61 L275,56 L270,56 Z M270,51 L270,56 L275,56 L275,51 L270,51 Z M275,51 L275,56 L280,56 L280,51 L275,51 Z M275,46 L275,51 L280,51 L280,46 L275,46 Z M275,56 L275,61 L280,61 L280,56 L275,56 Z M280,56 L280,61 L285,61 L285,56 L280,56 Z M285,56 L285,61 L290,61 L290,56 L285,56 Z M285,51 L285,56 L290,56 L290,51 L285,51 Z M285,46 L285,51 L290,51 L290,46 L285,46 Z M285,61 L285,66 L290,66 L290,61 L285,61 Z M290,61 L290,66 L295,66 L295,61 L290,61 Z M295,61 L295,66 L300,66 L300,61 L295,61 Z M295,56 L295,61 L300,61 L300,56 L295,56 Z M295,51 L295,56 L300,56 L300,51 L295,51 Z M295,46 L295,51 L300,51 L300,46 L295,46 Z" id="M" fill="#2D1B19" sketch:type="MSShapeGroup"></path>
        <path d="M225,23 L225,28 L230,28 L230,23 L225,23 Z M225,28 L225,33 L230,33 L230,28 L225,28 Z M225,33 L225,38 L230,38 L230,33 L225,33 Z M230,33 L230,38 L235,38 L235,33 L230,33 Z M230,23 L230,28 L235,28 L235,23 L230,23 Z M235,23 L235,28 L240,28 L240,23 L235,23 Z M230,43 L230,48 L235,48 L235,43 L230,43 Z M230,48 L230,53 L235,53 L235,48 L230,48 Z M225,48 L225,53 L230,53 L230,48 L225,48 Z M225,53 L225,58 L230,58 L230,53 L225,53 Z M225,58 L225,63 L230,63 L230,58 L225,58 Z M230,58 L230,63 L235,63 L235,58 L230,58 Z M235,58 L235,63 L240,63 L240,58 L235,58 Z M240,48 L240,53 L245,53 L245,48 L240,48 Z M245,48 L245,53 L250,53 L250,48 L245,48 Z M250,48 L250,53 L255,53 L255,48 L250,48 Z M255,48 L255,53 L260,53 L260,48 L255,48 Z M255,43 L255,48 L260,48 L260,43 L255,43 Z M255,38 L255,43 L260,43 L260,38 L255,38 Z M250,38 L250,43 L255,43 L255,38 L250,38 Z M245,38 L245,43 L250,43 L250,38 L245,38 Z M240,38 L240,43 L245,43 L245,38 L240,38 Z M240,33 L240,38 L245,38 L245,33 L240,33 Z M245,33 L245,38 L250,38 L250,33 L245,33 Z M240,23 L240,28 L245,28 L245,23 L240,23 Z M245,23 L245,28 L250,28 L250,23 L245,23 Z M250,23 L250,28 L255,28 L255,23 L250,23 Z M250,28 L250,33 L255,33 L255,28 L250,28 Z M250,33 L250,38 L255,38 L255,33 L250,33 Z M255,53 L255,58 L260,58 L260,53 L255,53 Z M255,58 L255,63 L260,63 L260,58 L255,58 Z M240,58 L240,63 L245,63 L245,58 L240,58 Z M245,58 L245,63 L250,63 L250,58 L245,58 Z M250,58 L250,63 L255,63 L255,58 L250,58 Z M230,38 L230,43 L235,43 L235,38 L230,38 Z" id="E" fill="#2D1B19" sketch:type="MSShapeGroup"></path>
        <path d="M215,8 L215,13 L220,13 L220,8 L215,8 Z M220,8 L220,13 L225,13 L225,8 L220,8 Z M225,8 L225,13 L230,13 L230,8 L225,8 Z M215,13 L215,18 L220,18 L220,13 L215,13 Z M215,18 L215,23 L220,23 L220,18 L215,18 Z M215,23 L215,28 L220,28 L220,23 L215,23 Z M220,23 L220,28 L225,28 L225,23 L220,23 Z M225,23 L225,28 L230,28 L230,23 L225,23 Z M225,18 L225,23 L230,23 L230,18 L225,18 Z M225,13 L225,18 L230,18 L230,13 L225,13 Z" id="apos" fill="#2D1B19" sketch:type="MSShapeGroup"></path>
        <path d="M180,23 L180,28 L185,28 L185,23 L180,23 Z M185,23 L185,28 L190,28 L190,23 L185,23 Z M190,23 L190,28 L195,28 L195,23 L190,23 Z M190,28 L190,33 L195,33 L195,28 L190,28 Z M190,33 L190,38 L195,38 L195,33 L190,33 Z M190,38 L190,43 L195,43 L195,38 L190,38 Z M195,38 L195,43 L200,43 L200,38 L195,38 Z M200,33 L200,38 L205,38 L205,33 L200,33 Z M200,28 L200,33 L205,33 L205,28 L200,28 Z M205,28 L205,33 L210,33 L210,28 L205,28 Z M210,28 L210,33 L215,33 L215,28 L210,28 Z M210,33 L210,38 L215,38 L215,33 L210,33 Z M210,38 L210,43 L215,43 L215,38 L210,38 Z M210,43 L210,48 L215,48 L215,43 L210,43 Z M205,43 L205,48 L210,48 L210,43 L205,43 Z M210,48 L210,53 L215,53 L215,48 L210,48 Z M215,48 L215,53 L220,53 L220,48 L215,48 Z M215,53 L215,58 L220,58 L220,53 L215,53 Z M215,58 L215,63 L220,63 L220,58 L215,58 Z M180,28 L180,33 L185,33 L185,28 L180,28 Z M180,33 L180,38 L185,38 L185,33 L180,33 Z M180,38 L180,43 L185,43 L185,38 L180,38 Z M180,43 L180,48 L185,48 L185,43 L180,43 Z M180,48 L180,53 L185,53 L185,48 L180,48 Z M180,53 L180,58 L185,58 L185,53 L180,53 Z M180,58 L180,63 L185,63 L185,58 L180,58 Z M185,58 L185,63 L190,63 L190,58 L185,58 Z M190,58 L190,63 L195,63 L195,58 L190,58 Z M190,53 L190,58 L195,58 L195,53 L190,53 Z M190,48 L190,53 L195,53 L195,48 L190,48 Z M195,48 L195,53 L200,53 L200,48 L195,48 Z M200,53 L200,58 L205,58 L205,53 L200,53 Z M195,53 L195,58 L200,58 L200,53 L195,53 Z M200,58 L200,63 L205,63 L205,58 L200,58 Z M205,58 L205,63 L210,63 L210,58 L205,58 Z M210,58 L210,63 L215,63 L215,58 L210,58 Z" id="K" fill="#2D1B19" sketch:type="MSShapeGroup"></path>
        <path d="M138,32 L138,38 L144,38 L144,32 L138,32 Z M144,32 L144,38 L150,38 L150,32 L144,32 Z M144,26 L144,32 L150,32 L150,26 L144,26 Z M150,26 L150,32 L156,32 L156,26 L150,26 Z M156,26 L156,32 L162,32 L162,26 L156,26 Z M162,26 L162,32 L168,32 L168,26 L162,26 Z M168,26 L168,32 L174,32 L174,26 L168,26 Z M168,32 L168,38 L174,38 L174,32 L168,32 Z M168,38 L168,44 L174,44 L174,38 L168,38 Z M168,44 L168,50 L174,50 L174,44 L168,44 Z M168,50 L168,56 L174,56 L174,50 L168,50 Z M174,50 L174,56 L180,56 L180,50 L174,50 Z M174,56 L174,62 L180,62 L180,56 L174,56 Z M174,62 L174,68 L180,68 L180,62 L174,62 Z M168,62 L168,68 L174,68 L174,62 L168,62 Z M162,68 L162,74 L168,74 L168,68 L162,68 Z M168,68 L168,74 L174,74 L174,68 L168,68 Z M162,56 L162,62 L168,62 L168,56 L162,56 Z M156,56 L156,62 L162,62 L162,56 L156,56 Z M150,50 L150,56 L156,56 L156,50 L150,50 Z M150,44 L150,50 L156,50 L156,44 L150,44 Z M156,38 L156,44 L162,44 L162,38 L156,38 Z M156,44 L156,50 L162,50 L162,44 L156,44 Z M156,50 L156,56 L162,56 L162,50 L156,50 Z M162,50 L162,56 L168,56 L168,50 L162,50 Z M162,44 L162,50 L168,50 L168,44 L162,44 Z M138,38 L138,44 L144,44 L144,38 L138,38 Z M138,44 L138,50 L144,50 L144,44 L138,44 Z M138,50 L138,56 L144,56 L144,50 L138,50 Z M138,56 L138,62 L144,62 L144,56 L138,56 Z M138,62 L138,68 L144,68 L144,62 L138,62 Z M144,62 L144,68 L150,68 L150,62 L144,62 Z M144,68 L144,74 L150,74 L150,68 L144,68 Z M150,68 L150,74 L156,74 L156,68 L150,68 Z M156,68 L156,74 L162,74 L162,68 L156,68 Z" id="C" fill="#2D1B19" sketch:type="MSShapeGroup"></path>
        <path d="M117,21 L124,21 L124,28 L117,28 L117,21 Z M124,21 L131,21 L131,28 L124,28 L124,21 Z M131,21 L138,21 L138,28 L131,28 L131,21 Z M110,28 L117,28 L117,35 L110,35 L110,28 Z M117,28 L124,28 L124,35 L117,35 L117,28 Z M131,28 L138,28 L138,35 L131,35 L131,28 Z M103,35 L110,35 L110,42 L103,42 L103,35 Z M110,35 L117,35 L117,42 L110,42 L110,35 Z M131,35 L138,35 L138,42 L131,42 L131,35 Z M96,42 L103,42 L103,49 L96,49 L96,42 Z M103,42 L110,42 L110,49 L103,49 L103,42 Z M131,42 L138,42 L138,49 L131,49 L131,42 Z M96,49 L103,49 L103,56 L96,56 L96,49 Z M110,49 L117,49 L117,56 L110,56 L110,49 Z M117,49 L124,49 L124,56 L117,56 L117,49 Z M131,49 L138,49 L138,56 L131,56 L131,49 Z M89,56 L96,56 L96,63 L89,63 L89,56 Z M96,56 L103,56 L103,63 L96,63 L96,56 Z M131,56 L138,56 L138,63 L131,63 L131,56 Z M89,63 L96,63 L96,70 L89,70 L89,63 Z M103,63 L110,63 L110,70 L103,70 L103,63 Z M110,63 L117,63 L117,70 L110,70 L110,63 Z M117,63 L124,63 L124,70 L117,70 L117,63 Z M131,63 L138,63 L138,70 L131,70 L131,63 Z M89,70 L96,70 L96,77 L89,77 L89,70 Z M96,70 L103,70 L103,77 L96,77 L96,70 Z M103,70 L110,70 L110,77 L103,77 L103,70 Z M117,70 L124,70 L124,77 L117,77 L117,70 Z M124,70 L131,70 L131,77 L124,77 L124,70 Z M131,70 L138,70 L138,77 L131,77 L131,70 Z" id="a" fill="#2D1B19" sketch:type="MSShapeGroup"></path>
        <path d="M45,67.5761719 L45,57.1523438 L34,57.1523438 L34,67.5761719 L34,78 L45,78 L45,67.5761719 L45,67.5761719 Z M34,67.5761719 L34,57.1523438 L23,57.1523438 L23,67.5761719 L23,78 L34,78 L34,67.5761719 L34,67.5761719 Z M1,1 L12,1 L12,12 L1,12 L1,1 Z M12,1 L23,1 L23,12 L12,12 L12,1 Z M23,1 L34,1 L34,12 L23,12 L23,1 Z M1,12 L12,12 L12,23 L1,23 L1,12 Z M23,12 L34,12 L34,23 L23,23 L23,12 Z M34,12 L45,12 L45,23 L34,23 L34,12 Z M45,12 L56,12 L56,23 L45,23 L45,12 Z M56,12 L67,12 L67,23 L56,23 L56,12 Z M67,12 L78,12 L78,23 L67,23 L67,12 Z M1,23 L12,23 L12,34 L1,34 L1,23 Z M67,23 L78,23 L78,34 L67,34 L67,23 Z M1,34 L12,34 L12,45 L1,45 L1,34 Z M23,34 L34,34 L34,45 L23,45 L23,34 Z M34,34 L45,34 L45,45 L34,45 L34,34 Z M67,34 L78,34 L78,45 L67,45 L67,34 Z M1,45 L12,45 L12,56 L1,56 L1,45 Z M56,45 L67,45 L67,56 L56,56 L56,45 Z M67,45 L78,45 L78,56 L67,56 L67,45 Z M1,56 L12,56 L12,67 L1,67 L1,56 Z M67,56 L78,56 L78,67 L67,67 L67,56 Z M78,56 L89,56 L89,67 L78,67 L78,56 Z M1,67 L12,67 L12,78 L1,78 L1,67 Z M45,67 L56,67 L56,78 L45,78 L45,67 Z M78,67 L89,67 L89,78 L78,78 L78,67 Z M1,78 L12,78 L12,89 L1,89 L1,78 Z M12,78 L23,78 L23,89 L12,89 L12,78 Z M23,78 L34,78 L34,89 L23,89 L23,78 Z M45,78 L56,78 L56,89 L45,89 L45,78 Z M56,78 L67,78 L67,89 L56,89 L56,78 Z M67,78 L78,78 L78,89 L67,89 L67,78 Z M78,78 L89,78 L89,89 L78,89 L78,78 Z" id="R" fill="#2D1B19" sketch:type="MSShapeGroup"></path>
    </g>
</svg>